<svg xmlns="http://www.w3.org/2000/svg" xmlns:svg="http://www.w3.org/2000/svg" id="svg25" width="16" height="16" version="1.1" viewBox="0 0 4.233 4.233"><metadata id="metadata2"/><g id="g4541"><rect style="fill:none;stroke-width:.21686994" id="rect4" width="3.704" height="3.698" x=".264" y=".262" rx="0" ry="0"/><path style="fill:#fff;stroke-width:.23133515" id="path6" d="m 2.1161463,3.735516 c -0.8950078,0 -1.62057255,-0.7244064 -1.62057255,-1.6180339 0,-0.8936058 0.72554305,-1.61803388 1.62057255,-1.61803388 0.8950079,0 1.6205726,0.72440638 1.6205726,1.61803388 0,0.8936058 -0.725543,1.6180339 -1.6205726,1.6180339 z"/><path style="fill:#0086f5;stroke-width:.23133515;fill-opacity:1" id="path8" d="m 2.1161463,0.268316 c -1.0228661,0 -1.85206741,0.8279024 -1.85206741,1.8491661 0,1.0212638 0.82920131,1.8491661 1.85206741,1.8491661 1.0228661,0 1.8520675,-0.8279023 1.8520675,-1.8491661 0,-1.0212637 -0.8292014,-1.8491661 -1.8520675,-1.8491661 z"/><path style="opacity:.05;fill:#206ad9;stroke-width:.23133515" id="path10" d="m 2.1161463,0.268316 c -1.0228661,0 -1.85206741,0.8279024 -1.85206741,1.8491661 0,1.0212638 0.82920131,1.8491661 1.85206741,1.8491661 1.0228661,0 1.8520675,-0.8279023 1.8520675,-1.8491661 0,-1.0212637 -0.8292014,-1.8491661 -1.8520675,-1.8491661 z m 0,0.23115389 c 0.8950079,0 1.6205726,0.72440641 1.6205726,1.61803391 0,0.8936058 -0.725543,1.6180339 -1.6205726,1.6180339 -0.8950078,0 -1.62057255,-0.7244065 -1.62057255,-1.6180339 0,-0.8936058 0.72554305,-1.61803391 1.62057255,-1.61803391 z"/><path style="opacity:1;stroke-width:.23133515;fill:#1d60c4;fill-opacity:1" id="path12" d="m 2.1161463,0.268316 c -1.0228661,0 -1.85206741,0.8279024 -1.85206741,1.8491661 0,0.039 0.003497,0.077173 0.005877,0.1155748 C 0.32997657,1.2658814 1.1323431,0.49945689 2.116142,0.49945689 c 0.9838206,0 1.7861741,0.76642451 1.8461856,1.73360001 0.00238,-0.038401 0.00588,-0.076575 0.00588,-0.1155748 0,-1.0212637 -0.8292013,-1.8491661 -1.8520675,-1.8491661 z"/><rect id="rect16" width="2.315" height=".485" x=".959" y="2.047" rx=".28" ry=".243" style="opacity:.704;stroke-width:.21686994"/><rect id="rect18" width="2.315" height=".485" x=".959" y="1.874" rx=".28" ry=".243" style="fill:#fff;stroke-width:.21686994"/></g></svg>