<svg xmlns="http://www.w3.org/2000/svg" xmlns:svg="http://www.w3.org/2000/svg" id="svg4793" width="48" height="48" version="1.1" viewBox="0 0 48 48"><metadata id="metadata4798"/><g id="layer1" transform="translate(0,-1004.3622)"><path style="display:inline;opacity:.81;fill:#161a26;fill-opacity:1;stroke:none;stroke-width:2;stroke-linecap:round;stroke-linejoin:miter;stroke-miterlimit:4;stroke-dasharray:none;stroke-dashoffset:0;stroke-opacity:1" id="rect4749-1" d="M 0 0 L 0 1 L 45 1 C 46.108 1 47 1.892 47 3 L 47 45 C 47 46.108 46.108 47 45 47 L 0 47 L 0 48 L 46 48 C 47.108 48 48 47.108 48 46 L 48 2 C 48 0.892 47.108 0 46 0 L 0 0 z" transform="translate(0,1004.3622)"/><path style="display:inline;opacity:.95;fill:#353945;fill-opacity:.86544341;stroke:none;stroke-width:2;stroke-linecap:round;stroke-linejoin:miter;stroke-miterlimit:4;stroke-dasharray:none;stroke-dashoffset:0;stroke-opacity:1" id="rect4749-48" d="m 45,1005.3622 c 1.108,0 2,0.892 2,2 l 0,42 c 0,1.108 -0.892,2 -2,2 l -45,0 0,-46 z"/></g></svg>