<svg xmlns="http://www.w3.org/2000/svg" xmlns:svg="http://www.w3.org/2000/svg" id="svg4793" width="51.2" height="51.2" version="1.1" viewBox="0 0 48 48"><metadata id="metadata4798"/><g id="layer1" transform="translate(0,-1004.3622)"><g id="g4136" transform="matrix(-1,0,0,1,48,0)"><path id="rect4749-1" d="m 0,0 v 1 h 45 c 1.108,0 2,0.892 2,2 v 42 c 0,1.108 -0.892,2 -2,2 H 0 v 1 h 46 c 1.108,0 2,-0.892 2,-2 V 2 C 48,0.892 47.108,0 46,0 Z" transform="translate(0,1004.3622)" style="display:inline;opacity:.81000001;fill:#000;fill-opacity:1;stroke:none;stroke-width:2;stroke-linecap:round;stroke-linejoin:miter;stroke-miterlimit:4;stroke-dasharray:none;stroke-dashoffset:0;stroke-opacity:1"/><path id="rect4749-48" d="m 45,1005.3622 c 1.108,0 2,0.892 2,2 v 42 c 0,1.108 -0.892,2 -2,2 H 0 v -46 z" style="display:inline;opacity:.95;fill:#404040;fill-opacity:1;stroke:none;stroke-width:2;stroke-linecap:round;stroke-linejoin:miter;stroke-miterlimit:4;stroke-dasharray:none;stroke-dashoffset:0;stroke-opacity:1"/></g></g></svg>