<svg xmlns="http://www.w3.org/2000/svg" xmlns:svg="http://www.w3.org/2000/svg" id="svg17" width="32" height="32" version="1.1" viewBox="0 0 8.467 8.467"><metadata id="metadata2"/><g id="g4498"><rect style="fill:none;stroke-width:.43331328" id="rect4" width="7.4" height="7.391" x=".538" y=".542"/><path style="fill:gray;fill-opacity:0;stroke-width:.46221527" id="path6" d="m 4.2289324,0.5249886 c -2.0433131,0 -3.69975471,1.6545057 -3.69975471,3.6954309 0,2.0409252 1.65644161,3.6954309 3.69975471,3.6954309 2.0433132,0 3.6997547,-1.6545057 3.6997547,-3.6954309 0,-2.0409252 -1.6564415,-3.6954309 -3.6997547,-3.6954309 z"/><path style="opacity:1;fill:#4d4d4d;fill-opacity:0;stroke-width:.46221527" id="path12" d="m 4.2289324,0.5249886 c -2.0433131,0 -3.69975471,1.6545057 -3.69975471,3.6954309 0,0.077933 0.00698,0.1542257 0.0117323,0.2309639 C 0.6608042,2.51855 2.2636439,0.98690339 4.2289151,0.98690339 c 1.9653145,0 3.5681238,1.53164661 3.688005,3.46448001 0.00477,-0.076738 0.01175,-0.1530304 0.01175,-0.2309639 0,-2.0409252 -1.6564416,-3.6954309 -3.6997547,-3.6954309 z"/><rect style="opacity:.70400002;stroke-width:.43368563" id="rect16" width="4.63" height=".971" x="1.883" y="4.11" rx=".56" ry=".485"/><rect style="fill:#fff;stroke-width:.43368563" id="rect18" width="4.63" height=".971" x="1.883" y="3.764" rx=".56" ry=".485"/></g></svg>