<svg xmlns="http://www.w3.org/2000/svg" xmlns:svg="http://www.w3.org/2000/svg" id="svg8" width="32" height="32" version="1.1" viewBox="0 0 8.467 8.467"><metadata id="metadata2"/><g id="g4503"><g id="g6" transform="matrix(.23635 0 0 .24017 -12.485 -31.893)"><rect id="rect4" width="29.124" height="28.625" x="56.171" y="136.11" fill="#2d323d" stroke="#262934" stroke-linejoin="round" stroke-width="2.221" rx="14.106" ry="14.129" style="color:#000"/></g><path id="path8" d="m 5.63551,4.7231649 c 0,0.76534 -0.6211643,1.3857999 -1.3874175,1.3857999 -0.7662332,0 -1.3874174,-0.6204399 -1.3874174,-1.3857999 0,-0.7653399 0.6211642,-1.3857999 1.3874174,-1.3857999 0.7662332,0 1.3874175,0.62044 1.3874175,1.3857999 z" style="opacity:.70800003;stroke-width:.43330333"/><path id="path10" d="m 5.63551,4.259765 c 0,0.7653399 -0.6211643,1.3857998 -1.3874175,1.3857998 -0.7662332,0 -1.3874174,-0.6204399 -1.3874174,-1.3857998 0,-0.76534 0.6211642,-1.3858 1.3874174,-1.3858 0.7662332,0 1.3874175,0.62044 1.3874175,1.3858 z" style="fill:#fff;fill-opacity:1;stroke-width:.43330333"/></g></svg>