<svg xmlns="http://www.w3.org/2000/svg" xmlns:svg="http://www.w3.org/2000/svg" id="svg12" width="16" height="16" version="1.1" viewBox="0 0 4.233 4.233"><metadata id="metadata2"/><g id="g4509"><g id="g10" transform="matrix(.23221 0 0 .23209 -51.271 -64.855)"><rect id="rect4" width="18.23" height="18.24" x="220.79" y="279.44" fill="none" style="color:#000"/><g id="g8" transform="matrix(.50892 0 0 .51740 193.91 210.74)"><rect id="rect6" width="29.124" height="28.625" x="56.171" y="136.11" fill="#2d323d" stroke="#262934" stroke-linejoin="round" stroke-width="2.221" rx="14.106" ry="14.129" style="color:#000"/></g></g><path id="path8" d="m 2.8309712,2.3484855 c 0,0.3826699 -0.3105199,0.6928999 -0.6935699,0.6928999 -0.38304,0 -0.69357,-0.31022 -0.69357,-0.6928999 0,-0.38267 0.31052,-0.6929 0.69357,-0.6929 0.38304,0 0.6935699,0.31022 0.6935699,0.6929 z" style="opacity:.704;stroke-width:.21663"/><path id="path10" d="m 2.8309712,2.1167855 c 0,0.38267 -0.3105199,0.6928999 -0.6935699,0.6928999 -0.38304,0 -0.69357,-0.3102199 -0.69357,-0.6928999 0,-0.38267 0.31052,-0.6929 0.69357,-0.6929 0.38304,0 0.6935699,0.31022 0.6935699,0.6929 z" style="fill:#fff;stroke-width:.21663;fill-opacity:1"/></g></svg>