<svg xmlns="http://www.w3.org/2000/svg" xmlns:svg="http://www.w3.org/2000/svg" id="svg8" width="32" height="32" version="1.1" viewBox="0 0 8.467 8.467"><metadata id="metadata2"/><g id="g4566"><g id="g6" transform="matrix(0.23636,0,0,0.24017,-12.485,-31.893)" style="opacity:.50800003"><rect id="rect4" width="29.124" height="28.625" x="56.171" y="136.11" rx="14.106" ry="14.129" style="color:#000;fill:#2d323d;stroke:#262934;stroke-width:2.22099996;stroke-linejoin:round"/></g><path style="opacity:.70400002;stroke-width:.43331328" id="path8" d="m 5.6018997,4.7144417 c 0,0.7653468 -0.621171,1.3857918 -1.3874134,1.3857918 -0.7662423,0 -1.3874133,-0.620445 -1.3874133,-1.3857918 0,-0.7653469 0.621171,-1.385792 1.3874133,-1.385792 0.7662424,0 1.3874134,0.6204451 1.3874134,1.385792 z"/><path style="fill:#b3b3b3;stroke-width:.43331328" id="path10" d="m 5.6018997,4.2510675 c 0,0.7653469 -0.621171,1.385792 -1.3874134,1.385792 -0.7662423,0 -1.3874133,-0.6204451 -1.3874133,-1.385792 0,-0.7653469 0.621171,-1.3857921 1.3874133,-1.3857921 0.7662424,0 1.3874134,0.6204452 1.3874134,1.3857921 z"/></g></svg>