<svg xmlns="http://www.w3.org/2000/svg" xmlns:osb="http://www.openswatchbook.org/uri/2009/osb" xmlns:svg="http://www.w3.org/2000/svg" xmlns:xlink="http://www.w3.org/1999/xlink" id="svg7384" width="16" height="16" version="1.1"><metadata id="metadata90"/><title id="title9167">Gnome Symbolic Icon Theme</title><defs id="defs7386"><linearGradient id="selected_bg_color" osb:paint="solid"><stop style="stop-color:#5294e2;stop-opacity:1" id="stop4149" offset="0"/></linearGradient><linearGradient id="linearGradient4151" x1="108.316" x2="108.316" y1="748.987" y2="761.017" gradientTransform="translate(-100.0002,-747)" gradientUnits="userSpaceOnUse" xlink:href="#selected_bg_color"/></defs><g id="layer12" transform="translate(-100.0002,-747)" style="display:inline"><path style="font-size:medium;font-style:normal;font-variant:normal;font-weight:400;font-stretch:normal;text-indent:0;text-align:start;text-decoration:none;line-height:normal;letter-spacing:normal;word-spacing:normal;text-transform:none;direction:ltr;block-progression:tb;writing-mode:lr-tb;text-anchor:start;baseline-shift:baseline;color:#000;fill:url(#linearGradient4151);fill-opacity:1;stroke:none;stroke-width:2;marker:none;visibility:visible;display:inline;overflow:visible;enable-background:accumulate;font-family:Sans;-inkscape-font-specification:Sans" id="path6040" d="M 11.029297 1.9863281 A 1.0001 1.0001 0 0 0 10.875 2 A 1.0001 1.0001 0 0 0 10.28125 2.28125 L 5.28125 7.28125 L 4.59375 8 L 5.28125 8.71875 L 10.28125 13.71875 A 1.016466 1.016466 0 0 0 11.320312 13.964844 C 11.376215 13.986347 11.436343 14 11.5 14 C 11.777 14 12 13.777 12 13.5 C 12 13.436343 11.986347 13.376215 11.964844 13.320312 A 1.016466 1.016466 0 0 0 11.71875 12.28125 L 7.4375 8 L 11.71875 3.71875 A 1.0001 1.0001 0 0 0 11.972656 2.6347656 C 11.985073 2.5910427 12 2.5478091 12 2.5 C 12 2.223 11.777 2 11.5 2 C 11.441137 2 11.386348 2.0146851 11.333984 2.0332031 A 1.0001 1.0001 0 0 0 11.029297 1.9863281 z" transform="translate(100.0002,747)"/></g></svg>