<svg xmlns="http://www.w3.org/2000/svg" xmlns:xlink="http://www.w3.org/1999/xlink" width="16" height="16" version="1.1" viewBox="0 0 4.233 4.233"><defs><linearGradient id="linearGradient3856-6-9" x1="398.38" x2="398.38" y1="513.91" y2="503.7" gradientTransform="matrix(1.1378 0 0 1.1378 -637.4 -1105.4)" gradientUnits="userSpaceOnUse"><stop offset="0" stop-color="#aaa"/><stop offset="1" stop-color="#949494"/></linearGradient></defs><metadata/><g transform="translate(0 -292.77)"><g id="checkbox-unchecked"><g transform="matrix(.21704 0 0 .21704 -6.4337 351.74) translate(221.69 266.77)"><rect width="14.933" height="14.933" x="-536.22" y="174.83" fill="#fff" stroke-width="1.067" rx="1.067" transform="rotate(90)"/><g><rect width="17.067" height="17.067" x="-190.83" y="-537.28" fill="url(#linearGradient3856-6-9)" rx="3.484" ry="3.484"/><rect width="14.791" height="14.791" x="-189.69" y="-536.15" fill="#fff" rx="3.02" ry="3.02"/><path d="m-186.67-536.15c-1.673 0-3.0222 1.3492-3.0222 3.0222v1.1378c0-1.673 1.3492-3.0222 3.0222-3.0222h8.7467c1.673 0 3.0222 1.3492 3.0222 3.0222v-1.1378c0-1.673-1.3492-3.0222-3.0222-3.0222z" opacity=".2"/></g></g></g></g></svg>