<svg xmlns="http://www.w3.org/2000/svg" xmlns:svg="http://www.w3.org/2000/svg" id="svg22" width="16" height="16" version="1.1" viewBox="0 0 4.233 4.233"><defs id="defs7"><linearGradient id="linearGradient3856-65" x1="400.56" x2="400.56" y1="514.21" y2="499.21" gradientTransform="matrix(0.24694811,0,0,0.24694811,-96.661708,-123.05672)" gradientUnits="userSpaceOnUse"><stop id="stop2" offset="0" stop-color="#1d60c4"/><stop id="stop4" offset="1" stop-color="#1d60c4"/></linearGradient></defs><metadata id="metadata9"/><g id="g5269"><rect style="fill:gray;fill-opacity:1;stroke-width:.21704" id="rect11" width="3.704" height="3.704" x=".265" y=".259" rx=".756" ry=".756"/><rect style="fill:gray;fill-opacity:1;stroke-width:.21704" id="rect13" width="3.21" height="3.21" x=".511" y=".504" rx=".655" ry=".655"/><path style="opacity:.70800003;stroke-width:.21704" id="path15" d="M 2.9488176,1.26162 C 2.8869356,1.274642 2.8253131,1.31371 2.7867603,1.37014 L 1.7912629,2.8286488 1.4131358,2.4505217 c -0.096479,-0.096479 -0.2507897,-0.096479 -0.347264,0 -0.0964786,0.096479 -0.0964786,0.2507897 0,0.347264 l 0.5478958,0.5478958 0.038585,0.038581 c 0.010396,0.010266 0.018336,0.022294 0.030867,0.030872 0.00965,0.00662 0.020696,0.010374 0.03087,0.015432 0.012618,0.00623 0.025303,0.011503 0.038583,0.015453 0.0075,0.00239 0.015557,0.00619 0.023128,0.0077 0.00486,0.00109 0.010512,-6.511e-4 0.015441,0 0.020836,0.00267 0.040884,0.00267 0.061735,0 0.020836,-0.00271 0.04198,-0.00738 0.061737,-0.015453 0.031013,-0.012263 0.060485,-0.029314 0.084887,-0.054021 0.010279,-0.010396 0.022294,-0.018383 0.030867,-0.030865 L 3.1957555,1.6474498 C 3.2728568,1.534882 3.2465884,1.3772784 3.1340206,1.3001858 3.0777356,1.2616352 3.0106941,1.2500301 2.9488139,1.2616005 Z"/><path style="fill:#ccc;fill-opacity:1;stroke-width:.21704" id="path17" d="M 2.9488176,1.0163648 C 2.8869351,1.0272168 2.8253131,1.066284 2.7867603,1.1227144 L 1.7912629,2.5812232 1.4131358,2.2030961 c -0.096479,-0.096481 -0.2507897,-0.096481 -0.347264,0 -0.0964786,0.096477 -0.0964786,0.2507897 0,0.347264 l 0.5478958,0.5478958 0.038585,0.038583 c 0.010396,0.010266 0.018336,0.022294 0.030867,0.03087 0.00965,0.00662 0.020696,0.010375 0.03087,0.015432 0.012618,0.00623 0.025303,0.011503 0.038583,0.015432 0.0075,0.00239 0.015557,0.00619 0.023128,0.0077 0.00486,0.00109 0.010512,-6.511e-4 0.015441,0 0.020836,0.00267 0.040884,0.00267 0.061735,0 0.020836,-0.00271 0.04198,-0.00738 0.061737,-0.015432 0.031013,-0.012263 0.060485,-0.029316 0.084887,-0.054021 0.010279,-0.010396 0.022294,-0.018362 0.030867,-0.030865 L 3.1957338,1.4005017 C 3.2728351,1.2879339 3.2465667,1.1303303 3.1339989,1.0532377 3.0777139,1.0146893 3.0106724,1.003082 2.9487922,1.0146545 Z"/></g></svg>