<svg xmlns="http://www.w3.org/2000/svg" xmlns:svg="http://www.w3.org/2000/svg" id="svg23" width="32" height="32" version="1.1" viewBox="0 0 8.467 8.467"><metadata id="metadata2"/><g id="g4531"><rect style="fill:none;stroke-width:.43368566" id="rect4" width="7.408" height="7.395" x=".529" y=".516" rx="0" ry="0"/><path style="fill:#fff;stroke-width:.46261248" id="path6" d="m 4.2331074,7.4624338 c -1.7899263,0 -3.24098315,-1.4485231 -3.24098315,-3.2354206 0,-1.7868541 1.45101345,-3.23542054 3.24098315,-3.23542054 1.7899262,0 3.2409831,1.44852314 3.2409831,3.23542054 0,1.7868542 -1.4510135,3.2354206 -3.2409831,3.2354206 z"/><path id="path8" d="m 4.2331074,0.52942067 c -2.04563,0 -3.70394974,1.65547353 -3.70394974,3.69759253 0,2.042119 1.65831974,3.6975926 3.70394974,3.6975926 2.0456299,0 3.7039496,-1.6554736 3.7039496,-3.6975926 0,-2.042119 -1.6583197,-3.69759253 -3.7039496,-3.69759253 z" style="fill:#0086f5;stroke-width:.46261248;fill-opacity:1"/><path id="path10" d="m 4.2331074,0.52942067 c -2.04563,0 -3.70394974,1.65547353 -3.70394974,3.69759253 0,2.042119 1.65831974,3.6975926 3.70394974,3.6975926 2.0456299,0 3.7039496,-1.6554736 3.7039496,-3.6975926 0,-2.042119 -1.6583197,-3.69759253 -3.7039496,-3.69759253 z m 0,0.46221532 c 1.7899262,0 3.2409831,1.44852311 3.2409831,3.23542061 0,1.7868541 -1.4510135,3.2354205 -3.2409831,3.2354205 -1.7899263,0 -3.24098315,-1.4485231 -3.24098315,-3.2354205 0,-1.7868542 1.45101345,-3.23542061 3.24098315,-3.23542061 z" style="opacity:.05;fill:#206ad9;stroke-width:.46261248"/><path id="path12" d="m 4.2331074,0.52942067 c -2.04563,0 -3.70394974,1.65547353 -3.70394974,3.69759253 0,0.077983 0.006993,0.1543159 0.0117543,0.2311034 C 0.66094644,2.5241525 2.2655992,0.99160999 4.2330987,0.99160999 c 1.9675428,0 3.5721696,1.53254251 3.6921867,3.46650661 0.00477,-0.076788 0.011754,-0.15312 0.011754,-0.2311034 0,-2.042119 -1.6583198,-3.69759253 -3.7039497,-3.69759253 z" style="opacity:1;stroke-width:.46261248;fill:#1d60c4;fill-opacity:1"/><rect style="opacity:.704;stroke-width:.43368566" id="rect16" width="4.63" height=".971" x="1.918" y="4.087" rx=".56" ry=".485"/><rect style="fill:#fff;stroke-width:.43368566" id="rect18" width="4.63" height=".971" x="1.918" y="3.74" rx=".56" ry=".485"/></g></svg>