<svg xmlns="http://www.w3.org/2000/svg" xmlns:svg="http://www.w3.org/2000/svg" id="svg17" width="32" height="32" version="1.1" viewBox="0 0 8.467 8.467"><metadata id="metadata2"/><g id="g4516"><rect style="fill:none;stroke-width:.43331328" id="rect4" width="7.4" height="7.391" x=".538" y=".542"/><path style="fill:#0086f5;stroke-width:.46221527;fill-opacity:1" id="path6" d="m 4.2289324,0.5249886 c -2.0433131,0 -3.69975471,1.6545057 -3.69975471,3.6954309 0,2.0409252 1.65644161,3.6954309 3.69975471,3.6954309 2.0433132,0 3.6997547,-1.6545057 3.6997547,-3.6954309 0,-2.0409252 -1.6564415,-3.6954309 -3.6997547,-3.6954309 z"/><path style="opacity:.704;stroke-width:.43331328" id="path8" d="m 5.6163459,4.6823646 c 0,0.7653469 -0.6211711,1.385792 -1.3874135,1.385792 -0.7662424,0 -1.3874134,-0.6204451 -1.3874134,-1.385792 0,-0.7653469 0.621171,-1.385792 1.3874134,-1.385792 0.7662424,0 1.3874135,0.6204451 1.3874135,1.385792 z"/><path style="fill:#fff;stroke-width:.43331328" id="path10" d="m 5.6163459,4.2189904 c 0,0.7653469 -0.6211711,1.385792 -1.3874135,1.385792 -0.7662424,0 -1.3874134,-0.6204451 -1.3874134,-1.385792 0,-0.7653469 0.621171,-1.385792 1.3874134,-1.385792 0.7662424,0 1.3874135,0.6204451 1.3874135,1.385792 z"/><path style="opacity:1;stroke-width:.46221527;fill:#1d60c4;fill-opacity:1" id="path12" d="m 4.2289324,0.5249886 c -2.0433131,0 -3.69975471,1.6545057 -3.69975471,3.6954309 0,0.077933 0.00698,0.1542257 0.0117323,0.2309639 C 0.6608042,2.51855 2.2636439,0.98690339 4.2289151,0.98690339 c 1.9653145,0 3.5681238,1.53164661 3.688005,3.46448001 0.00477,-0.076738 0.01175,-0.1530304 0.01175,-0.2309639 0,-2.0409252 -1.6564416,-3.6954309 -3.6997547,-3.6954309 z"/></g></svg>