<svg xmlns="http://www.w3.org/2000/svg" xmlns:xlink="http://www.w3.org/1999/xlink" width="16" height="16" version="1.1" viewBox="0 0 4.233 4.233"><defs><linearGradient id="linearGradient3856-4-0" x1="398.38" x2="398.38" y1="513.91" y2="503.7" gradientTransform="matrix(1.1378 0 0 1.1378 -585.14 -1071.3)" gradientUnits="userSpaceOnUse"><stop offset="0" stop-color="#aaa"/><stop offset="1" stop-color="#aaa"/></linearGradient></defs><metadata/><g transform="translate(0 -292.77)"><g id="checkbox-unchecked-insensitive"><g transform="matrix(.21704 0 0 .21704 -6.4647 347.13) translate(169.56 253.89)"><rect width="14.933" height="14.933" x="-502.08" y="122.56" fill="#fff" stroke-width="1.067" rx="1.067" transform="rotate(90)"/><g><rect width="17.067" height="17.067" x="-138.56" y="-503.15" fill="url(#linearGradient3856-4-0)" rx="3.484" ry="3.484"/><rect width="14.791" height="14.791" x="-137.42" y="-502.01" fill="#f2f2f2" rx="3.02" ry="3.02"/><path d="m-134.4-502.01c-1.673 0-3.0222 1.3492-3.0222 3.0222v1.1378c0-1.673 1.3492-3.0222 3.0222-3.0222h8.7467c1.673 0 3.0222 1.3492 3.0222 3.0222v-1.1378c0-1.673-1.3492-3.0222-3.0222-3.0222z" opacity=".1"/></g></g></g></g></svg>