<svg xmlns="http://www.w3.org/2000/svg" xmlns:svg="http://www.w3.org/2000/svg" id="svg24" width="32" height="32" version="1.1" viewBox="0 0 8.467 8.467"><defs id="defs7"><linearGradient id="linearGradient3856-65" x1="400.56" x2="400.56" y1="514.21" y2="499.21" gradientTransform="matrix(0.49389622,0,0,0.49389622,-193.32357,-246.09344)" gradientUnits="userSpaceOnUse"><stop id="stop2" offset="0" stop-color="#1d60c4"/><stop id="stop4" offset="1" stop-color="#1d60c4"/></linearGradient></defs><metadata id="metadata9"/><g id="g4497"><rect id="rect11" width="7.408" height="7.408" x=".529" y=".538" rx="1.513" ry="1.513" style="fill:#1d60c4;stroke-width:.43408;fill-opacity:0"/><rect id="rect13" width="6.42" height="6.42" x="1.023" y="1.028" rx="1.311" ry="1.311" style="fill:#0086f5;fill-opacity:.0046729;stroke-width:.43408"/><path id="path15" d="M 5.8974768,2.54324 C 5.7737119,2.5692848 5.6504679,2.6474192 5.5733623,2.76028 L 3.5823676,5.6772976 2.8261134,4.9210434 c -0.1929573,-0.1929572 -0.5015794,-0.1929572 -0.694528,0 -0.1929573,0.1929573 -0.1929573,0.5015795 0,0.694528 l 1.0957915,1.0957916 0.077171,0.077162 c 0.020791,0.020532 0.036671,0.044589 0.061735,0.061744 0.019309,0.013239 0.041391,0.020749 0.061739,0.030863 0.025236,0.012458 0.050605,0.023006 0.077166,0.030906 0.015002,0.00477 0.031115,0.012371 0.046256,0.01541 0.00973,0.00217 0.021024,-0.0013 0.030882,0 0.041672,0.00534 0.081768,0.00534 0.1234697,0 0.041672,-0.00543 0.08396,-0.014759 0.123474,-0.030907 0.062026,-0.024525 0.1209694,-0.058627 0.1697731,-0.1080425 0.020558,-0.020792 0.044589,-0.036767 0.061735,-0.06173 L 6.3913526,3.3148997 C 6.5455552,3.0897641 6.4930185,2.7745569 6.2678829,2.6203717 6.1553129,2.5432704 6.02123,2.5200601 5.8974694,2.5432009 Z" style="opacity:.70200004;stroke-width:.43408"/><path id="path17" d="M 5.8974768,2.0527296 C 5.7737119,2.0744336 5.6504679,2.152568 5.5733623,2.2654288 L 3.5823676,5.1824464 2.8261134,4.4261922 c -0.1929573,-0.1929616 -0.5015794,-0.1929616 -0.694528,0 -0.1929573,0.1929529 -0.1929573,0.5015795 0,0.694528 l 1.0957915,1.0957916 0.077171,0.077166 c 0.020791,0.020532 0.036671,0.044589 0.061735,0.061739 0.019309,0.013239 0.041391,0.020749 0.061739,0.030863 0.025236,0.012458 0.050605,0.023006 0.077166,0.030863 0.015002,0.00477 0.031115,0.012371 0.046256,0.01541 0.00973,0.00217 0.021024,-0.0013 0.030882,0 0.041672,0.00534 0.081768,0.00534 0.1234697,0 0.041672,-0.00543 0.08396,-0.014759 0.123474,-0.030863 0.062026,-0.024526 0.1209694,-0.058631 0.1697731,-0.1080425 0.020558,-0.020792 0.044589,-0.036723 0.061735,-0.06173 L 6.3913092,2.8210035 C 6.5455118,2.5958679 6.4929751,2.2806607 6.2678395,2.1264755 6.1552695,2.0493785 6.0211866,2.0261639 5.897426,2.049309 Z" style="fill:#e9f1fc;stroke-width:.43408"/></g></svg>