<svg xmlns="http://www.w3.org/2000/svg" xmlns:svg="http://www.w3.org/2000/svg" id="svg19" width="40" height="40" version="1.1" viewBox="0 0 10.583 10.583"><metadata id="metadata2"/><g id="g4522"><rect style="fill:none;stroke-width:.24805" id="rect4" width="10.584" height="10.584" x="-.001" y="-.005" rx="0" ry="0"/><rect id="rect6" width="9.525" height="9.525" x=".502" y=".551" rx="1.945" ry="1.945" style="fill:#b3b3b3;stroke-width:.1116225;fill-opacity:.0046729"/><rect id="rect8" width="8.573" height="8.573" x=".977" y="1.027" rx="1.75" ry="1.75" style="fill:none;stroke-width:.1116225"/><path id="path10" d="M 7.4034139,3.1332906 C 7.2442849,3.1630715 7.0858256,3.2663781 6.9866936,3.4111078 L 4.4268549,7.1616238 3.4545001,6.1892691 c -0.2480922,-0.2480922 -0.6448878,-0.2480922 -0.89298,0 -0.2480922,0.2480921 -0.2480922,0.6448878 0,0.89298 l 1.4088992,1.4088992 0.099219,0.09922 c 0.026735,0.026415 0.047182,0.057342 0.079377,0.079376 0.024828,0.017019 0.053213,0.02667 0.079376,0.039688 0.032449,0.016002 0.065062,0.029591 0.09922,0.039687 0.019305,0.00572 0.040006,0.015876 0.059499,0.019813 0.01251,0.00253 0.027052,-0.00191 0.03969,0 0.053594,0.00685 0.1051383,0.00685 0.1587495,0 0.053593,-0.00692 0.1079445,-0.018986 0.1587495,-0.039689 0.079752,-0.03156 0.1555348,-0.07537 0.218289,-0.138903 0.026415,-0.026734 0.05734,-0.047245 0.079375,-0.079377 L 8.0383573,4.1254282 C 8.2366212,3.8359687 8.1690673,3.4307121 7.8796078,3.2324482 7.7348781,3.1333174 7.5624771,3.1034684 7.4033481,3.1332281 Z" style="opacity:.704;stroke-width:.1116225"/><path id="path12" d="M 7.4034139,2.4992748 C 7.2442849,2.5290568 7.0858256,2.6323623 6.9866936,2.777092 L 4.4268549,6.527608 3.4545001,5.5552533 c -0.2480922,-0.2480922 -0.6448878,-0.2480922 -0.89298,0 -0.2480922,0.2480921 -0.2480922,0.6448878 0,0.89298 l 1.4088992,1.4088992 0.099219,0.09922 c 0.026735,0.026417 0.047182,0.057342 0.079377,0.079376 0.024828,0.017019 0.053213,0.026671 0.079376,0.039688 0.032449,0.016002 0.065062,0.02959 0.09922,0.039687 0.019305,0.00572 0.040006,0.015876 0.059499,0.019812 0.01251,0.00253 0.027052,-0.00191 0.03969,0 0.053594,0.00692 0.1051383,0.00692 0.1587495,0 0.053593,-0.00692 0.1079445,-0.018986 0.1587495,-0.039687 0.079752,-0.03156 0.1555348,-0.075376 0.218289,-0.138903 0.026415,-0.026734 0.05734,-0.047181 0.079375,-0.079375 L 8.0383573,3.4914146 C 8.2366212,3.2019552 8.1690673,2.7966985 7.8796078,2.5984346 7.7348781,2.4993038 7.5624771,2.4694548 7.4033481,2.4992145 Z" style="fill:#e9f1fc;stroke-width:.1116225"/></g></svg>