<svg xmlns="http://www.w3.org/2000/svg" xmlns:svg="http://www.w3.org/2000/svg" id="svg30" width="40" height="40" version="1.1" viewBox="0 0 10.583 10.583"><defs id="defs12"><linearGradient id="linearGradient3856-64-5" x1="404" x2="398.38" y1="514.24" y2="503.7" gradientTransform="matrix(0.635,0,0,0.635,-248.73,-316.532)" gradientUnits="userSpaceOnUse"><stop id="stop2" offset="0" stop-color="#1754da"/><stop id="stop4" offset="1" stop-color="#144cc6"/></linearGradient><linearGradient id="linearGradient3853-04-0" x1="402.25" x2="396.62" y1="507.86" y2="502.85" gradientTransform="matrix(0.65942,0,0,0.65942,-258.5,-328.911)" gradientUnits="userSpaceOnUse"><stop id="stop7" offset="0" stop-color="#1859e7"/><stop id="stop9" offset="1" stop-color="#154ecb"/></linearGradient></defs><metadata id="metadata14"/><rect style="fill:none" id="rect16" width="10.583" height="10.583" x="0" y="0" rx="0" ry="0"/><rect id="rect18" width="9.525" height="9.525" x=".506" y=".56" rx="1.945" ry="1.945" style="fill:#1b3652;fill-opacity:1"/><rect id="rect20" width="8.573" height="8.573" x=".982" y="1.04" rx="1.75" ry="1.75" style="fill:#356da9;fill-opacity:1"/><path id="path22" d="M 7.4084,3.15 C 7.24928,3.1798 7.09081,3.28308 6.99168,3.42781 l -2.5599,3.74 -0.9723,-0.97 c -0.24809,-0.24809 -0.64488,-0.24809 -0.89297,0 -0.24809,0.24809 -0.24809,0.64488 0,0.89297 l 1.4089,1.4089 0.099218,0.0992 c 0.026734,0.0264 0.047181,0.0573 0.079376,0.0794 0.024828,0.017 0.053212,0.0267 0.079375,0.0397 0.032448,0.016 0.065062,0.0296 0.099219,0.0397 0.019304,0.006 0.040005,0.0159 0.059499,0.0198 0.012508,0.003 0.027051,-0.002 0.039688,0 0.053594,0.007 0.10514,0.007 0.15875,0 0.053594,-0.007 0.10794,-0.019 0.15875,-0.0397 0.079751,-0.0316 0.15553,-0.0754 0.21828,-0.13891 0.026415,-0.0267 0.057341,-0.0472 0.079375,-0.0794 l 2.9964,-4.3855 C 8.2416,3.84451 8.17405,3.43927 7.88459,3.241 7.73986,3.1419 7.56746,3.11203 7.40834,3.1418 Z" style="opacity:.704"/><path id="path24" d="M 7.4084,2.51 C 7.24928,2.5398 7.09081,2.64309 6.99168,2.78782 l -2.5599,3.75 -0.9723,-0.97 c -0.24809,-0.24809 -0.64488,-0.24809 -0.89297,0 -0.24809,0.24809 -0.24809,0.64488 0,0.89297 l 1.4089,1.4089 0.099218,0.0992 c 0.026734,0.0264 0.047181,0.0573 0.079376,0.0794 0.024828,0.017 0.053212,0.0267 0.079375,0.0397 0.032448,0.016 0.065062,0.0296 0.099219,0.0397 0.019304,0.006 0.040005,0.0159 0.059499,0.0198 0.012508,0.003 0.027051,-0.002 0.039688,0 0.053594,0.007 0.10514,0.007 0.15875,0 0.053594,-0.007 0.10794,-0.019 0.15875,-0.0397 0.079751,-0.0316 0.15553,-0.0754 0.21828,-0.13891 0.026415,-0.0267 0.057341,-0.0472 0.079375,-0.0794 l 2.9964,-4.3855 C 8.2416,3.21452 8.17405,2.80928 7.88459,2.61101 7.73986,2.51191 7.56746,2.48203 7.40834,2.51181 Z" style="fill:#e9f1fc;fill-opacity:1"/></svg>