<svg xmlns="http://www.w3.org/2000/svg" xmlns:svg="http://www.w3.org/2000/svg" id="svg17" width="16" height="16" version="1.1" viewBox="0 0 4.233 4.233"><metadata id="metadata2"/><g id="g4497"><rect style="fill:none;stroke-width:.21663497;opacity:.94" id="rect4" width="3.699" height="3.696" x=".269" y=".266"/><path style="fill:#0086f5;fill-opacity:0;stroke-width:.23108453;opacity:.94" id="path6" d="m 2.114502,0.2574943 c -1.0214523,0 -1.84950744,0.8272529 -1.84950744,1.8477154 0,1.0204626 0.82805514,1.8477155 1.84950744,1.8477155 1.0214523,0 1.8495074,-0.8272529 1.8495074,-1.8477155 0,-1.0204625 -0.8280551,-1.8477154 -1.8495074,-1.8477154 z"/><path style="opacity:.94;stroke-width:.21663497" id="path8" d="m 2.80807,2.3361823 c 0,0.3826735 -0.3105234,0.692896 -0.693568,0.692896 -0.3830446,0 -0.693568,-0.3102225 -0.693568,-0.692896 0,-0.3826735 0.3105234,-0.692896 0.693568,-0.692896 0.3830446,0 0.693568,0.3102225 0.693568,0.692896 z"/><path style="fill:#fff;stroke-width:.21663497;opacity:.99999999" id="path10" d="m 2.80807,2.1044952 c 0,0.3826735 -0.3105234,0.692896 -0.693568,0.692896 -0.3830446,0 -0.693568,-0.3102225 -0.693568,-0.692896 0,-0.3826735 0.3105234,-0.692896 0.693568,-0.692896 0.3830446,0 0.693568,0.3102225 0.693568,0.692896 z"/><path style="opacity:.94;fill:#1d60c4;fill-opacity:0;stroke-width:.23108453" id="path12" d="m 2.114502,0.2574943 c -1.0214523,0 -1.84950744,0.8272529 -1.84950744,1.8477154 0,0.038967 0.00349,0.077113 0.005865,0.115482 C 0.33079465,1.254275 1.1320543,0.48845169 2.1144933,0.48845169 c 0.9824608,0 1.7837052,0.76582331 1.8436338,1.73224001 0.00238,-0.038369 0.00587,-0.076515 0.00587,-0.115482 0,-1.0204625 -0.8280552,-1.8477154 -1.8495075,-1.8477154 z"/></g></svg>