<svg xmlns="http://www.w3.org/2000/svg" width="16" height="16" version="1.1" viewBox="0 0 4.233 4.233"><metadata/><g transform="translate(0 -292.77)"><g id="radio-unchecked-insensitive"><g stroke-width="1.067"><path fill="#f2f2f2" d="m-204.87-516.28c4.4585 0 8.0728 3.5238 8.0728 7.8707s-3.6143 7.8707-8.0728 7.8707-8.0728-3.5238-8.0728-7.8707 3.6143-7.8707 8.0728-7.8707z" transform="matrix(.21704 0 0 .21704 -1.819 347.12) translate(222.93 267.76)"/><path fill="#aaa" d="m-204.8-516.95c-4.7128 0-8.5333 3.8205-8.5333 8.5333s3.8205 8.5333 8.5333 8.5333 8.5333-3.8205 8.5333-8.5333-3.8205-8.5333-8.5333-8.5333zm0 1.0667c4.1237 0 7.4667 3.3429 7.4667 7.4667 0 4.1237-3.343 7.4667-7.4667 7.4667s-7.4667-3.3429-7.4667-7.4667c0-4.1237 3.3429-7.4667 7.4667-7.4667z" transform="matrix(.21704 0 0 .21704 -1.819 347.12) translate(222.93 267.76)"/></g></g></g></svg>