<svg xmlns="http://www.w3.org/2000/svg" xmlns:svg="http://www.w3.org/2000/svg" id="svg30" width="16" height="16" version="1.1" viewBox="0 0 4.233 4.233"><defs id="defs12"><linearGradient id="linearGradient4199-9-9" x1="10.126" x2="4.989" y1="12.382" y2="5.346" gradientTransform="matrix(1.0667,0,0,1.0667,-154.67,-482.81)" gradientUnits="userSpaceOnUse"><stop id="stop2" offset="0" stop-color="#75afff"/><stop id="stop4" offset="1" stop-color="#8cbaff"/></linearGradient><linearGradient id="linearGradient4201-94-4" x1="11.932" x2="2.983" y1="13.695" y2="2.441" gradientTransform="matrix(1.0667,0,0,1.0667,-154.67,-482.81)" gradientUnits="userSpaceOnUse"><stop id="stop7" offset="0" stop-color="#87b7ff"/><stop id="stop9" offset="1" stop-color="#98c1ff"/></linearGradient></defs><metadata id="metadata14"/><g id="g4574"><rect id="rect4" width="4.233" height="4.233" x="0" y="0" style="color:#000;fill:none;stroke-width:.23215371"/><rect style="color:#000;fill:#81848b;fill-opacity:1;stroke:#7d7f85;stroke-width:.26458311;stroke-linejoin:round;stroke-opacity:1" id="rect6" width="3.442" height="3.437" x=".396" y=".4" rx="1.667" ry="1.697"/><path id="path24" d="m 2.8127,2.3477 c 0,0.38357 -0.31095,0.69453 -0.69453,0.69453 -0.38357,0 -0.69453,-0.31095 -0.69453,-0.69453 0,-0.38357 0.31095,-0.69453 0.69453,-0.69453 0.38357,0 0.69453,0.31095 0.69453,0.69453 z" style="opacity:.704;stroke-width:.21704"/><path id="path26" d="m 2.8127,2.1154 c 0,0.38357 -0.31095,0.69453 -0.69453,0.69453 -0.38357,0 -0.69453,-0.31095 -0.69453,-0.69453 0,-0.38357 0.31095,-0.69453 0.69453,-0.69453 0.38357,0 0.69453,0.31095 0.69453,0.69453 z" style="fill:#b3b3b3;stroke-width:.21704;opacity:1;fill-opacity:1"/></g></svg>